<svg width="23" height="23" viewBox="0 0 23 23" fill="none" xmlns="http://www.w3.org/2000/svg">
<path d="M19.1966 9.13352L12.0091 16.321C11.9423 16.3878 11.8631 16.4409 11.7758 16.477C11.6885 16.5132 11.595 16.5318 11.5006 16.5318C11.4061 16.5318 11.3126 16.5132 11.2253 16.477C11.1381 16.4409 11.0588 16.3878 10.9921 16.321L3.80455 9.13352C3.70392 9.033 3.63537 8.90488 3.60759 8.76538C3.57981 8.62588 3.59405 8.48127 3.64849 8.34987C3.70294 8.21847 3.79515 8.10617 3.91345 8.0272C4.03176 7.94823 4.17083 7.90614 4.31307 7.90625L18.6881 7.90625C18.8303 7.90614 18.9694 7.94823 19.0877 8.0272C19.206 8.10617 19.2982 8.21847 19.3526 8.34987C19.4071 8.48127 19.4213 8.62588 19.3935 8.76538C19.3658 8.90488 19.2972 9.033 19.1966 9.13352Z" fill="#999B9E"/>
</svg>
