<svg width="22" height="22" viewBox="0 0 22 22" fill="none" xmlns="http://www.w3.org/2000/svg">
<path d="M18.3619 8.73641L11.4869 15.6114C11.4231 15.6753 11.3473 15.726 11.2638 15.7606C11.1804 15.7952 11.0909 15.813 11.0005 15.813C10.9102 15.813 10.8207 15.7952 10.7373 15.7606C10.6538 15.726 10.578 15.6753 10.5141 15.6114L3.63914 8.73641C3.54288 8.64026 3.47731 8.51771 3.45074 8.38427C3.42417 8.25084 3.43778 8.11252 3.48986 7.98683C3.54194 7.86114 3.63015 7.75373 3.7433 7.67819C3.85646 7.60266 3.98949 7.56239 4.12554 7.5625L17.8755 7.5625C18.0116 7.56239 18.1446 7.60266 18.2578 7.67819C18.3709 7.75373 18.4591 7.86114 18.5112 7.98683C18.5633 8.11252 18.5769 8.25084 18.5503 8.38427C18.5238 8.51771 18.4582 8.64026 18.3619 8.73641Z" fill="#999B9E"/>
</svg>
