<svg width="1437" height="1023" viewBox="0 0 1437 1023" fill="none" xmlns="http://www.w3.org/2000/svg">
<path d="M-3.62396e-05 952C-3.62396e-05 991.765 32.2461 1024.13 71.9854 1022.72C236.495 1016.86 398.558 990.974 551.064 946.053C725.773 894.592 884.517 819.165 1018.23 724.077C1151.95 628.99 1258.02 516.105 1330.39 391.868C1389.83 289.82 1425.57 181.754 1436.45 71.8835C1440.36 32.3123 1407.76 5.96688e-05 1368 5.79834e-05L72 3.05176e-06C32.2355 1.36632e-06 -3.62396e-05 32.2355 -3.62396e-05 72V952Z" fill="url(#paint0_linear_36_342)"/>
<defs>
<linearGradient id="paint0_linear_36_342" x1="-1.43786e-06" y1="27.7696" x2="582.558" y2="730.68" gradientUnits="userSpaceOnUse">
<stop stop-color="#474B4E"/>
<stop offset="1" stop-color="#434142" stop-opacity="0"/>
</linearGradient>
</defs>
</svg>
