<svg width="30" height="120" viewBox="0 0 30 120" fill="none" xmlns="http://www.w3.org/2000/svg">
<circle cx="15" cy="104.713" r="15" fill="#F1785B" fill-opacity="0.6"/>
<path d="M17.5446 4.585V3.50893C17.5446 3.17362 17.4709 2.84159 17.3278 2.5318C17.1847 2.22201 16.9749 1.94053 16.7104 1.70343C16.4459 1.46633 16.1319 1.27825 15.7864 1.14993C15.4408 1.02161 15.0704 0.955566 14.6964 0.955566C14.3224 0.955566 13.952 1.02161 13.6064 1.14993C13.2609 1.27825 12.9469 1.46633 12.6824 1.70343C12.4179 1.94053 12.2081 2.22201 12.065 2.5318C11.9219 2.84159 11.8482 3.17362 11.8482 3.50893V6.0623C11.8482 6.15904 11.8911 6.25182 11.9674 6.32023C12.0437 6.38864 12.1472 6.42707 12.2551 6.42707C12.363 6.42707 12.4665 6.38864 12.5428 6.32023C12.6191 6.25182 12.662 6.15904 12.662 6.0623V5.31453H15.9171V4.585H12.662V3.50893C12.662 3.02522 12.8763 2.56132 13.2578 2.21929C13.6394 1.87725 14.1568 1.6851 14.6964 1.6851C15.236 1.6851 15.7534 1.87725 16.135 2.21929C16.5165 2.56132 16.7308 3.02522 16.7308 3.50893V6.04406C16.7308 6.1408 16.7737 6.23358 16.85 6.30199C16.9263 6.3704 17.0298 6.40883 17.1377 6.40883C17.2456 6.40883 17.3491 6.3704 17.4254 6.30199C17.5017 6.23358 17.5446 6.1408 17.5446 6.04406V5.31453H19.579V11.8803H9.81377V5.31453H11.0344V4.585H9V11.9132C9 12.0979 9.08188 12.2751 9.22762 12.4058C9.37337 12.5365 9.57104 12.6099 9.77715 12.6099H19.6156C19.8218 12.6099 20.0194 12.5365 20.1652 12.4058C20.3109 12.2751 20.3928 12.0979 20.3928 11.9132V4.585H17.5446Z" fill="white"/>
</svg>
