<svg width="25" height="17" viewBox="0 0 25 17" fill="none" xmlns="http://www.w3.org/2000/svg">
<path d="M17.7845 9.37677C19.4008 5.61003 19.6769 2.19838 18.4012 1.75665C17.1256 1.31492 14.7812 4.01038 13.1649 7.77712C11.5486 11.5439 11.2724 14.9555 12.5481 15.3972C13.8238 15.839 16.1682 13.1435 17.7845 9.37677Z" fill="white" stroke="white" stroke-width="1.17561" stroke-linecap="round" stroke-linejoin="round"/>
<path d="M18.066 8.69154C18.1548 8.91883 18.2486 9.14771 18.3476 9.37816C19.9643 13.1449 22.3083 15.8403 23.5842 15.3987C24.8601 14.9571 24.5832 11.5455 22.9671 7.77884C21.351 4.01214 19.0063 1.31622 17.7305 1.75781" fill="white"/>
<path d="M18.066 8.69154C18.1548 8.91883 18.2486 9.14771 18.3476 9.37816C19.9643 13.1449 22.3083 15.8403 23.5842 15.3987C24.8601 14.9571 24.5832 11.5455 22.9671 7.77884C21.351 4.01214 19.0063 1.31622 17.7305 1.75781" stroke="white" stroke-width="1.17561" stroke-linecap="round" stroke-linejoin="round"/>
<path d="M7.5462 9.37677C9.1625 5.61003 9.43863 2.19838 8.16296 1.75665C6.88728 1.31492 4.54287 4.01038 2.92657 7.77712C1.31027 11.5439 1.03414 14.9555 2.30981 15.3972C3.58549 15.839 5.9299 13.1435 7.5462 9.37677Z" fill="white" stroke="white" stroke-width="1.17561" stroke-linecap="round" stroke-linejoin="round"/>
<path d="M7.82636 8.69154C7.91513 8.91884 8.00899 9.14771 8.10793 9.37817C9.31634 12.1937 10.9307 14.4106 12.2024 15.1663M12.9462 8.3095C12.8759 8.13349 12.8027 7.95644 12.7269 7.77832C11.1102 4.01162 8.7661 1.31623 7.49023 1.75782" fill="#D9D9D9"/>
<path d="M7.82636 8.69154C7.91513 8.91884 8.00899 9.14771 8.10793 9.37817C9.31634 12.1937 10.9307 14.4106 12.2024 15.1663M12.9462 8.3095C12.8759 8.13349 12.8027 7.95644 12.7269 7.77832C11.1102 4.01162 8.7661 1.31623 7.49023 1.75782" stroke="white" stroke-width="1.17561" stroke-linecap="round" stroke-linejoin="round"/>
</svg>
