<svg width="53" height="53" viewBox="0 0 53 53" fill="none" xmlns="http://www.w3.org/2000/svg">
<rect x="0.5" y="0.5" width="52" height="52" rx="26" fill="#EAE0E3"/>
<rect x="0.5" y="0.5" width="52" height="52" rx="26" stroke="white"/>
<g clip-path="url(#clip0_30_932)">
<path d="M26.5007 40.6667C18.6764 40.6667 12.334 34.3243 12.334 26.5C12.334 18.6758 18.6764 12.3334 26.5007 12.3334C34.3249 12.3334 40.6673 18.6758 40.6673 26.5C40.6673 34.3243 34.3249 40.6667 26.5007 40.6667ZM26.5007 37.8334C29.5064 37.8334 32.3891 36.6393 34.5145 34.5139C36.6399 32.3885 37.834 29.5058 37.834 26.5C37.834 23.4943 36.6399 20.6116 34.5145 18.4862C32.3891 16.3608 29.5064 15.1667 26.5007 15.1667C23.4949 15.1667 20.6122 16.3608 18.4868 18.4862C16.3614 20.6116 15.1673 23.4943 15.1673 26.5C15.1673 29.5058 16.3614 32.3885 18.4868 34.5139C20.6122 36.6393 23.4949 37.8334 26.5007 37.8334ZM25.084 30.75H27.9173L27.9173 33.5834H25.084L25.084 30.75ZM25.084 19.4167H27.9173L27.9173 27.9167H25.084L25.084 19.4167Z" fill="#EA3323"/>
</g>
<defs>
<clipPath id="clip0_30_932">
<rect width="34" height="34" fill="white" transform="translate(9.5 9.5)"/>
</clipPath>
</defs>
</svg>
