<svg width="36" height="32" viewBox="0 0 36 32" fill="none" xmlns="http://www.w3.org/2000/svg">
<g clip-path="url(#clip0_30_768)">
<path d="M10.1599 32.325C16.0224 32.325 20.7749 27.5725 20.7749 21.71C20.7749 15.8475 16.0224 11.095 10.1599 11.095C4.29742 11.095 -0.455078 15.8475 -0.455078 21.71C-0.455078 27.5725 4.29742 32.325 10.1599 32.325Z" fill="#44968A"/>
<path d="M6.72266 -0.161621L17.3377 -0.0516211C17.3377 -0.0516211 16.798 5.08076 13.8727 7.86838C10.9805 10.6244 6.72266 10.2884 6.72266 10.2884V-0.161621Z" fill="#142B3C"/>
<path d="M36.3992 32.4807C36.3992 32.4807 26.5784 33.0477 23.4742 28.5207C20.8342 24.6707 17.6992 -0.464233 17.6992 -0.464233L31.0092 -0.464232L36.3992 32.4807Z" fill="#33727D"/>
</g>
<defs>
<clipPath id="clip0_30_768">
<rect width="36" height="32" fill="white"/>
</clipPath>
</defs>
</svg>
