<svg width="24" height="24" viewBox="0 0 24 24" fill="none" xmlns="http://www.w3.org/2000/svg">
<path d="M21.6004 12C21.6001 10.1654 21.0742 8.36939 20.0848 6.82446C19.0955 5.27954 17.6842 4.05043 16.0181 3.28266C14.3519 2.51488 12.5007 2.24059 10.6835 2.49225C8.86627 2.74391 7.15923 3.51099 5.76443 4.70267C4.36964 5.89435 3.34551 7.46073 2.81327 9.21638C2.28104 10.972 2.263 12.8434 2.76129 14.609C3.25957 16.3746 4.25332 17.9604 5.62488 19.1787C6.99644 20.3971 8.68838 21.1969 10.5004 21.4836L10.5004 14.775H8.06319V12H10.5004V9.88498C10.5004 7.47898 11.9338 6.14998 14.1262 6.14998C14.8462 6.15997 15.5645 6.22254 16.2754 6.33718V8.69998H15.0646C14.8583 8.67258 14.6484 8.69196 14.4506 8.75668C14.2528 8.82141 14.0721 8.92982 13.9218 9.07388C13.7716 9.21794 13.6557 9.39396 13.5828 9.5889C13.5098 9.78383 13.4817 9.99269 13.5004 10.2V12H16.1632L15.7372 14.775H13.5004L13.5004 21.4836C15.7587 21.1263 17.8153 19.9748 19.3002 18.2363C20.7851 16.4978 21.6008 14.2863 21.6004 12Z" fill="#2E6FE8"/>
</svg>
