<svg width="23" height="22" viewBox="0 0 23 22" fill="none" xmlns="http://www.w3.org/2000/svg">
<path d="M20.4763 17.6022C20.3814 17.5789 20.2664 17.5918 20.1341 17.6357C18.3629 18.3634 16.6405 18.882 14.967 19.189C11.3527 19.8496 7.8303 19.5038 4.40283 18.1543C3.45108 17.7776 2.12839 17.1429 0.434786 16.2449C0.391147 16.214 0.33791 16.196 0.28239 16.1933C0.224883 16.1907 0.176001 16.1959 0.129995 16.2165C0.0839883 16.2372 0.0494835 16.263 0.0236049 16.2965C-0.00227364 16.3301 -0.00802425 16.3765 0.0121035 16.4359C0.0293559 16.4926 0.0724868 16.5571 0.144372 16.6268C0.443413 16.9416 0.814339 17.277 1.25427 17.6331C1.69421 17.9892 2.27791 18.3917 3.00539 18.8407C3.73286 19.2897 4.49484 19.6896 5.28558 20.038C6.07919 20.3863 6.99931 20.6805 8.04883 20.9178C9.09835 21.1552 10.1479 21.2739 11.1945 21.2739C12.2354 21.2739 13.2475 21.1785 14.2281 20.9927C15.2114 20.8043 16.0396 20.5824 16.7153 20.3244C17.3881 20.0689 18.0092 19.7825 18.5785 19.4729C19.1479 19.1632 19.5677 18.9001 19.8408 18.691C20.114 18.4795 20.3095 18.3143 20.4217 18.1905C20.5539 18.0434 20.6201 17.917 20.6201 17.806C20.6229 17.6899 20.5712 17.6228 20.4763 17.6022V17.6022ZM11.9191 6.74428C11.4821 6.77783 10.9559 6.85007 10.3376 6.95845C9.71944 7.06424 9.14723 7.19841 8.61816 7.35581C8.08909 7.51321 7.54851 7.73254 6.99931 8.01121C6.44724 8.28988 5.97855 8.60984 5.59037 8.96592C5.20219 9.322 4.8859 9.76839 4.63861 10.3077C4.39133 10.8444 4.26769 11.4353 4.26769 12.0803C4.26769 12.7796 4.40283 13.4014 4.67887 13.951C4.95203 14.5007 5.31721 14.9316 5.77727 15.2515C6.23446 15.5715 6.7549 15.8218 7.32998 16.005C7.90506 16.1882 8.51465 16.2707 9.14723 16.2475C9.77982 16.2243 10.398 16.1366 10.999 15.9817C11.5971 15.8295 12.1606 15.5844 12.684 15.2515C13.2073 14.9187 13.6357 14.5239 13.9721 14.0723C14.0958 14.2426 14.2051 14.3691 14.3028 14.4516L14.553 14.6813C14.7197 14.8335 14.9757 15.058 15.3207 15.3547C15.6629 15.6515 16.0137 15.9405 16.3645 16.2243L19.3664 13.6466L19.1939 13.5201C19.0702 13.435 18.9236 13.3137 18.7568 13.1512C18.59 12.9912 18.4233 12.8131 18.2622 12.6222C18.0983 12.4313 17.9574 12.2068 17.8395 11.9539C17.7217 11.701 17.6613 11.4559 17.6613 11.2185V4.4375C17.6613 4.17689 17.6066 3.89564 17.4974 3.59116C17.3852 3.28927 17.1897 2.95899 16.9022 2.60291C16.6146 2.24683 16.2581 1.92687 15.8325 1.6482C15.4041 1.36953 14.8348 1.13214 14.1188 0.941198C13.4057 0.750256 12.6063 0.654785 11.7265 0.654785C10.8265 0.654785 9.98972 0.750256 9.20762 0.936037C8.42838 1.1244 7.76129 1.37469 7.20347 1.68948C6.64851 2.00428 6.1712 2.3681 5.77439 2.78353C5.37759 3.19896 5.08142 3.63245 4.88877 4.084C4.69612 4.53555 4.59836 4.99226 4.59836 5.45413L8.48589 5.76119C8.64404 5.33802 8.85682 4.97162 9.11848 4.65682C9.38302 4.34203 9.63317 4.11496 9.86033 3.97305C10.0904 3.83113 10.3376 3.7176 10.5993 3.63245C10.8638 3.5473 11.0421 3.50343 11.1341 3.49311C11.2261 3.48537 11.298 3.48279 11.3527 3.48279C12.1204 3.48279 12.6523 3.68663 12.9514 4.09174C13.1383 4.33687 13.2303 4.70843 13.2303 5.20901V6.66945C12.7932 6.68494 12.3562 6.71074 11.9191 6.74428V6.74428ZM13.2332 10.6638C13.2332 11.0921 13.1699 11.4817 13.0463 11.8249C12.7817 12.5757 12.2785 13.0479 11.5396 13.2389C10.8955 13.4092 10.283 13.324 9.70218 12.986C9.08397 12.6248 8.77631 12.1139 8.77631 11.4559C8.77631 10.9424 8.92008 10.5038 9.20762 10.1374C9.49516 9.77355 9.87758 9.50004 10.3578 9.31942C10.838 9.1388 11.3067 9.00978 11.7667 8.93495C12.2239 8.85754 12.7156 8.8111 13.2332 8.79562V10.6638V10.6638ZM22.8715 16.312C22.7478 16.1727 22.4143 16.0824 21.868 16.0359C21.3217 15.9895 20.8472 15.9921 20.4389 16.0462C19.999 16.0927 19.5447 16.2062 19.0788 16.392C18.6102 16.5752 18.406 16.73 18.4578 16.8513L18.4779 16.8848L18.5038 16.9029L18.544 16.9081H18.6763C18.6993 16.9081 18.728 16.9055 18.7683 16.9029C18.8086 16.9003 18.8459 16.8952 18.8804 16.8926C18.9149 16.89 18.9638 16.8848 19.0271 16.8823C19.0875 16.8797 19.145 16.8719 19.1996 16.8642C19.2082 16.8642 19.306 16.8565 19.4958 16.841C19.6856 16.8255 19.8236 16.8152 19.907 16.8074C19.9903 16.7997 20.1312 16.792 20.3239 16.7842C20.5165 16.7765 20.6718 16.7765 20.7868 16.7842C20.9018 16.792 21.0312 16.8023 21.1779 16.8126C21.3245 16.8229 21.4424 16.8461 21.5344 16.8823C21.6264 16.9158 21.6955 16.9597 21.7386 17.0139C21.8881 17.1842 21.8594 17.5609 21.6523 18.1466C21.4453 18.7323 21.2498 19.1994 21.0657 19.5451C20.9852 19.6922 20.9852 19.7825 21.0657 19.8212C21.1463 19.8599 21.2584 19.8238 21.4079 19.718C21.8565 19.4032 22.2303 18.9284 22.5322 18.2911C22.7076 17.9144 22.8341 17.5222 22.9089 17.1119C22.9779 16.7016 22.9664 16.4359 22.8715 16.312V16.312Z" fill="white"/>
</svg>
