<svg width="7" height="5" viewBox="0 0 7 5" fill="none" xmlns="http://www.w3.org/2000/svg">
<path d="M6.99997 1.54393C7.00022 1.61862 6.98374 1.69242 6.95172 1.75991C6.91971 1.82739 6.87299 1.88684 6.81498 1.9339L3.81527 4.34867C3.72581 4.4222 3.6136 4.4624 3.4978 4.4624C3.38199 4.4624 3.26978 4.4222 3.18033 4.34867L0.180609 1.8489C0.0785104 1.76404 0.0143043 1.6421 0.00211555 1.5099C-0.0100732 1.3777 0.0307539 1.24607 0.115615 1.14397C0.200476 1.04187 0.322421 0.977667 0.454621 0.965478C0.586822 0.953289 0.71845 0.994116 0.820549 1.07898L3.5003 3.31377L6.18004 1.15397C6.25343 1.09284 6.34279 1.054 6.43756 1.04206C6.53232 1.03012 6.62852 1.04558 6.71478 1.0866C6.80104 1.12763 6.87373 1.1925 6.92427 1.27355C6.97482 1.3546 7.00108 1.44843 6.99997 1.54393Z" fill="white"/>
</svg>
