<svg width="22" height="24" viewBox="0 0 22 24" fill="none" xmlns="http://www.w3.org/2000/svg">
<path d="M2.07517 2.20623C1.957 2.20728 1.83991 2.22655 1.729 2.2632V1.89526C1.729 1.38072 2.19576 0.961426 2.76854 0.961426H18.0155C18.5882 0.961426 19.055 1.38072 19.055 1.89526V2.20623H2.07517ZM20.0945 4.38581H1.03563C0.462847 4.38581 -0.00390625 4.8051 -0.00390625 5.31965V22.4397C-0.00390625 22.9542 0.462847 23.3735 1.03563 23.3735H8.62426L9.76568 18.102H7.43711C7.38409 18.102 2.07517 17.877 2.07517 17.877L6.89759 17.5716L6.81651 17.2298L4.7603 16.9637L6.71671 16.8161L6.58781 16.3968L3.39123 15.9607C3.39123 15.9607 6.86433 15.6124 6.91734 15.6124H10.2771L10.5339 14.3695C10.8343 12.8604 11.5163 11.7482 12.5849 10.9208C13.6587 10.0878 15.0216 9.67693 16.6776 9.67693C17.346 9.67693 17.7722 9.81794 17.9572 10.1093C18.0799 10.283 18.1662 10.5912 18.2473 10.9115C18.3242 11.2402 18.3928 11.5381 18.346 11.7547C18.2868 12.0769 17.8668 12.189 17.1017 12.189H16.8387C15.4592 12.189 14.6203 12.9015 14.3386 14.3461L14.086 15.6115H15.6869C16.2836 15.6115 16.4988 15.9869 16.3335 16.8311C16.1568 17.7098 15.7732 18.1011 15.1786 18.1011H13.5797L12.4404 23.3735H20.0935C20.6663 23.3735 21.133 22.9542 21.133 22.4397V5.31965C21.133 5.07214 21.0237 4.83476 20.8289 4.65965C20.6342 4.48455 20.3701 4.38606 20.0945 4.38581ZM19.4012 3.14007C19.4009 3.05767 19.3643 2.97872 19.2995 2.92045C19.2346 2.86219 19.1467 2.82935 19.055 2.8291H2.07517C1.98345 2.82935 1.89556 2.86219 1.8307 2.92045C1.76584 2.97872 1.72928 3.05767 1.729 3.14007V3.76294H19.4012V3.14007Z" fill="white"/>
</svg>
